<?xml version="1.0" standalone="no"?>
<!DOCTYPE svg PUBLIC "-//W3C//DTD SVG 20010904//EN"
 "http://www.w3.org/TR/2001/REC-SVG-20010904/DTD/svg10.dtd">
<svg version="1.0" xmlns="http://www.w3.org/2000/svg"
 width="576.000000pt" height="600.000000pt" viewBox="0 0 576.000000 600.000000"
 preserveAspectRatio="xMidYMid meet">

    <g transform="translate(0.000000,600.000000) scale(0.100000,-0.100000)"
       fill="#0878A4" stroke="none">
        <path fill="#f2a104" d="M1745 5629 c-116 -86 -226 -229 -311 -399 -81 -164 -159 -398 -176
-530 -12 -96 -3 -348 16 -423 40 -160 114 -322 210 -457 75 -105 261 -299 275
-285 14 15 57 169 80 288 31 162 51 380 51 567 0 135 3 170 13 170 16 0 28
-25 69 -135 111 -307 139 -596 73 -759 -8 -18 -7 -18 21 0 67 42 124 98 173
168 28 41 51 77 51 81 0 4 7 21 15 38 51 110 70 332 40 477 -50 245 -134 392
-324 568 -147 136 -220 238 -251 352 -15 55 -15 200 0 246 17 49 9 59 -25 33z"/>
        <path fill="#f2a104" d="M5385 4273 c-30 -45 -117 -133 -131 -133 -8 0 -14 -4 -14 -10 0 -12
-51 -35 -140 -62 -80 -26 -263 -30 -358 -9 -130 29 -336 -2 -504 -76 -282
-123 -469 -345 -510 -606 -11 -72 -4 -187 12 -187 4 0 14 15 21 33 21 50 155
179 249 238 107 68 162 98 275 146 140 60 203 79 216 66 9 -9 3 -20 -26 -45
-115 -99 -159 -140 -254 -232 -121 -118 -253 -280 -333 -408 -32 -50 -58 -94
-58 -99 0 -24 381 -23 510 1 92 18 291 81 319 102 13 10 28 18 33 18 14 0 147
89 208 139 73 59 140 130 205 216 63 85 78 110 166 285 102 204 149 376 150
546 1 97 -9 119 -36 77z"/>
        <path fill="#03353E" d="M1947 3758 c-27 -68 -57 -188 -78 -308 -18 -101 -18 -486 0 -605 20
-138 58 -320 87 -420 14 -49 26 -97 27 -105 1 -8 4 -17 7 -20 3 -3 18 -43 34
-90 67 -200 158 -406 239 -543 26 -43 47 -80 47 -82 0 -2 20 -33 45 -68 25
-36 45 -68 45 -71 0 -14 -313 6 -625 40 -480 52 -875 179 -953 306 -38 61 -26
135 30 191 91 90 315 183 573 237 33 7 74 16 90 20 17 5 84 16 150 25 125 18
174 32 70 20 -298 -32 -513 -68 -715 -121 -132 -35 -201 -59 -299 -106 -445
-212 -78 -480 854 -623 50 -7 113 -16 140 -19 28 -4 84 -10 125 -16 85 -10
322 -27 512 -36 93 -4 128 -10 132 -19 13 -35 186 -234 316 -365 227 -226 444
-402 735 -594 156 -103 354 -221 360 -215 2 3 -30 47 -72 99 -224 282 -468
622 -588 820 -53 88 -145 261 -145 274 0 3 13 6 29 6 23 0 32 -7 45 -35 9 -19
21 -37 27 -41 12 -7 124 -38 199 -56 25 -5 49 -14 55 -19 5 -5 20 -9 35 -9 14
0 48 -7 75 -15 198 -61 631 -126 648 -98 4 6 -17 20 -46 33 -147 65 -228 106
-356 180 -77 45 -144 86 -147 92 -10 15 13 26 71 33 88 11 376 68 465 92 335
90 552 208 575 311 17 78 -46 151 -187 220 -219 106 -557 180 -1083 237 -82 9
-156 17 -162 18 -26 4 243 390 579 835 92 122 166 222 162 222 -3 0 -49 -31
-102 -68 -111 -78 -114 -80 -242 -165 -169 -113 -274 -180 -320 -205 -25 -13
-61 -33 -80 -44 -201 -119 -419 -219 -573 -263 -87 -25 -196 -18 -270 19 -66
32 -157 119 -212 202 -87 131 -181 367 -229 574 -40 172 -44 196 -57 303 -6
53 -13 97 -14 97 -2 0 -14 -28 -28 -62z m1453 -1467 c139 -19 337 -51 375 -62
22 -6 58 -14 80 -18 155 -31 366 -110 464 -174 83 -54 121 -105 121 -164 0
-56 -19 -92 -71 -136 -118 -102 -340 -174 -726 -237 l-122 -19 -83 56 c-114
77 -179 128 -264 206 l-52 48 -7 -67 c-4 -37 -5 -114 -1 -171 l7 -103 -34 0
c-33 0 -34 2 -41 46 -9 67 -7 162 5 214 5 25 14 61 18 80 18 80 114 291 188
415 13 22 29 52 36 68 13 30 14 30 107 18z"/>
        <path fill="#03353E" d="M2672 3590 c-180 -26 -335 -195 -349 -381 -30 -393 439 -608 718
-330 85 85 119 170 119 297 0 262 -224 452 -488 414z"/>
        <path fill="#03353E" d="M1818 2293 c12 -2 30 -2 40 0 9 3 -1 5 -23 4 -22 0 -30 -2 -17 -4z"/>
    </g>
</svg>
